<svg xmlns="http://www.w3.org/2000/svg" viewBox="0 0 87.17 95.17"><defs><style>.cls-1{fill:#fff;}</style></defs><title>ArtsPhilanthropyAsset 1</title><g id="Layer_2" data-name="Layer 2"><g id="Ñëîé_1" data-name="Ñëîé 1"><path class="cls-1" d="M48.07,30.54a7.62,7.62,0,0,0-5.32,2.12A7.49,7.49,0,0,0,47.48,45.5l.4,0H48a7.49,7.49,0,0,0,.49-15Zm3.15,7.53a3.24,3.24,0,0,1-1,2.28,3.33,3.33,0,0,1-2.31.92h-.17a3.24,3.24,0,0,1,.2-6.48h.23A3.24,3.24,0,0,1,51.22,38.07Z"/><path class="cls-1" d="M23.49,84.27H24a7.49,7.49,0,0,0,.47-15l-.48,0a7.49,7.49,0,0,0-.49,15Zm-1.77-9.8A3.24,3.24,0,0,1,24,73.55h.21a3.24,3.24,0,0,1,3,3.27,3.2,3.2,0,0,1-1,2.28,3.33,3.33,0,0,1-2.31.93h-.17a3.24,3.24,0,0,1-3-3.28A3.2,3.2,0,0,1,21.72,74.47Z"/><path class="cls-1" d="M23.72,58.91a7.49,7.49,0,0,0-7-7.58h-.47a7.49,7.49,0,0,0-.49,15l.4,0h.09A7.5,7.5,0,0,0,23.72,58.91Zm-7.47,3.14H16a3.24,3.24,0,0,1,.22-6.47h.22a3.24,3.24,0,0,1-.2,6.48Z"/><path class="cls-1" d="M34.49,42.41a7.48,7.48,0,0,0-7-7.57l-.4,0H27a7.49,7.49,0,0,0-.49,15l.4,0H27a7.49,7.49,0,0,0,7.49-7.39Zm-5.22,2.22a3.2,3.2,0,0,1-2.25.92h-.23a3.25,3.25,0,0,1-3-3.28A3.24,3.24,0,0,1,27,39.07h.21a3.23,3.23,0,0,1,3,3.28A3.19,3.19,0,0,1,29.27,44.63Z"/><path class="cls-1" d="M85.83,50.15A34,34,0,0,0,75.4,34.42c-.15-1.25-.3-2.46-.47-3.6a54.36,54.36,0,0,0-1.34-6.65l.06-.05c7.52-8-.75-17.42-4.72-21.93L67.84.94a2.56,2.56,0,0,0-3.25-.6,2.59,2.59,0,0,0-1.12,3.43h0c1.19,2.27.32,4.68-.69,7.47-1.31,3.62-3.06,8.52,1.65,12.86-.27.92-.51,2-.74,3.13a59.88,59.88,0,0,0-18-4.28A44.67,44.67,0,0,0,26.1,25.4C8.46,32,.28,49.27,0,63.46c-.2,10.21,3.87,19.42,11.17,25.28a26.71,26.71,0,0,0,16.93,6,29.28,29.28,0,0,0,6.94-.85c4.09-1,7.06-3,10.5-5.43a78,78,0,0,1,7.86-4.94,10.25,10.25,0,0,1,3.16-1.06,12.33,12.33,0,0,1,1.65-.15,2.12,2.12,0,0,0,0-4.24h-.06a15.65,15.65,0,0,0-2.21.2,14.1,14.1,0,0,0-4.48,1.5A79.12,79.12,0,0,0,43.13,85c-3.21,2.23-5.75,4-9.08,4.8a23,23,0,0,1-20.21-4.34c-6.27-5-9.76-13-9.59-21.88.25-12.76,7.56-28.27,23.34-34.17a40.48,40.48,0,0,1,17.77-2.19A54.78,54.78,0,0,1,63,31.56a186.8,186.8,0,0,0-1.52,25.22c0,3.48.08,6.95.23,10.31a2.12,2.12,0,0,0,1.86,2,45.33,45.33,0,0,0,10.92,0,2.12,2.12,0,0,0,1.86-2c.15-3.36.22-6.83.22-10.31,0-5.54-.18-10.87-.53-15.74a29.08,29.08,0,0,1,5.76,10.37c2.79,9,.42,18.24-6,23.53A14,14,0,0,1,65,78.51a2.13,2.13,0,0,0-2.22,1.95s0,0,0,0v0s0,.08,0,.12a1.93,1.93,0,0,0,0,.34C64.46,93.45,66.76,95.17,69,95.17s4.63-1.82,6.25-14.74a22.69,22.69,0,0,0,3.18-2.21C86.23,71.83,89.13,60.81,85.83,50.15ZM68.49,25.3l1-.06c1,3.55,2.06,10.28,2.54,20.19H66C66.45,35.57,67.51,28.85,68.49,25.3ZM66.77,12.7a24.84,24.84,0,0,0,1.38-4.86c3.65,4.56,6,9.15,2.66,13.08l-3.41.18C64.75,18.75,65.37,16.56,66.77,12.7Zm5.38,52.37a39,39,0,0,1-6.3,0c-.1-2.72-.15-5.5-.15-8.29,0-2.51,0-4.87.1-7.11h6.4c.06,2.24.1,4.6.1,7.11C72.3,59.57,72.25,62.35,72.15,65.07ZM69,89.77A36.27,36.27,0,0,1,67.4,83a14.36,14.36,0,0,0,3.27-.49A36.88,36.88,0,0,1,69,89.77Z"/></g></g></svg>