<svg xmlns="http://www.w3.org/2000/svg" viewBox="0 0 58.75 58.76"><defs><style>.cls-1{fill:#32373e;}</style></defs><title>cars-gray</title><g id="Layer_2" data-name="Layer 2"><g id="Layer_1-2" data-name="Layer 1"><path id="cars" class="cls-1" d="M52,29.12a1.86,1.86,0,1,1,1.85-1.85A1.85,1.85,0,0,1,52,29.12M49.4,39.79A22.63,22.63,0,0,1,34.9,51.27l-.4-2.83,1.82-12.19h-.06a9.76,9.76,0,0,0,2.44-4.11,97.09,97.09,0,0,1,9.7,1.28,7.69,7.69,0,0,1,1,6.38M29.38,36A6.63,6.63,0,1,1,36,29.38,6.64,6.64,0,0,1,29.38,36m2,12.13H27.34l-1.45-9.69a9.53,9.53,0,0,0,7,0Zm-7.57,3.13A22.64,22.64,0,0,1,9.35,39.79a7.69,7.69,0,0,1,1-6.38,96.71,96.71,0,0,1,9.7-1.28,9.76,9.76,0,0,0,2.44,4.11h-.06l1.82,12.19ZM6.8,29.12a1.86,1.86,0,1,1,1.86-1.85A1.85,1.85,0,0,1,6.8,29.12M15,23.25a67.6,67.6,0,0,1,8-1.18,9.64,9.64,0,0,0-3.32,7c-2.19.17-4.14.4-6,.68Zm28.76,0,1.37,6.5c-1.9-.28-3.85-.51-6-.68a9.66,9.66,0,0,0-3.31-7,70.3,70.3,0,0,1,8,1.16m8.86-11.8-5.47,4.05c.39.51.78,1,1.13,1.56a12.06,12.06,0,0,1,.17,4.12,74.59,74.59,0,0,0-19.09-2.48,71.21,71.21,0,0,0-19,2.52,12.05,12.05,0,0,1,.17-4.16c.35-.54.73-1.05,1.13-1.56L6.14,11.44A29.37,29.37,0,1,0,58.75,29.38a29.23,29.23,0,0,0-6.14-17.94M29.38,6.8a22.46,22.46,0,0,1,15.68,6.38l5.53-4.09a29.3,29.3,0,0,0-42.43,0l5.53,4.09A22.47,22.47,0,0,1,29.38,6.8m0,19.14a3.44,3.44,0,1,0,3.43,3.44,3.44,3.44,0,0,0-3.43-3.44"/></g></g></svg>