<svg xmlns="http://www.w3.org/2000/svg" viewBox="0 0 86.16 96.55">
  <defs>
    <style>.cls-1,.cls-2{fill:#32373e;}.cls-1{fill-rule:evenodd;}</style>
  </defs>
  <title>MusicEntertainmentAsset 2</title>
  <g id="Layer_2" data-name="Layer 2">
    <g id="Ñëîé_1" data-name="Ñëîé 1">
      <path class="cls-1" d="M85.64,51.63a2.09,2.09,0,0,0-1.6-.74H70.54a2.12,2.12,0,0,0-2.1,1.83L66.7,65a6.91,6.91,0,0,0-1.14-.1c-2.68,0-4.86,1.48-4.86,3.3s2.18,3.3,4.86,3.3a5.4,5.4,0,0,0,4.31-1.8,2.09,2.09,0,0,0,.63-1.22l1.89-13.37H81.6L80.21,65a8.62,8.62,0,0,0-1-.07c-2.68,0-4.86,1.48-4.86,3.3s2.18,3.3,4.86,3.3,4.6-1.33,4.82-3h0l0-.11c0-.05,0-.11,0-.17h0l2.1-14.91A2.07,2.07,0,0,0,85.64,51.63Z" />
      <path class="cls-2" d="M26.62,96.55h-.31a27.09,27.09,0,0,1-15.74-5.77C.46,83.11-3,70.6,2.84,62.9c3.52-4.63,7.28-5.44,10.3-6.08,2.46-.52,4.4-.94,6.3-3.13a18.2,18.2,0,0,0,2.85-5.2,16.82,16.82,0,0,1,3.76-6.22c3.49-3.21,8.79-3.52,14.38-.9L61.9,14.79a7.87,7.87,0,0,1,1.45-6.34l4-5.3A7.88,7.88,0,0,1,72.53.09a7.6,7.6,0,0,1,5.78,1.47,7.82,7.82,0,0,1,1.4,10.94l-4,5.31A7.86,7.86,0,0,1,70,20.92l-17,23.92a2.12,2.12,0,0,1-3.46-2.46L67.14,17.56a2.15,2.15,0,0,1,1.93-.88,3.65,3.65,0,0,0,3.23-1.44l4-5.3a3.57,3.57,0,0,0-.59-5,3.39,3.39,0,0,0-2.58-.65,3.71,3.71,0,0,0-2.4,1.42l-4,5.31a3.62,3.62,0,0,0-.51,3.5,2.14,2.14,0,0,1-.34,2.09L42.62,45.41a2.12,2.12,0,0,1-2.93.36l-.08-.06c-4.42-2.39-8.31-2.51-10.68-.31a13.1,13.1,0,0,0-2.72,4.73,22.42,22.42,0,0,1-3.56,6.34C19.81,59.74,16.74,60.4,14,61s-5.24,1.12-7.81,4.5C1.79,71.3,4.89,81.14,13.13,87.4a22.85,22.85,0,0,0,13.24,4.9c4.18,0,7.67-1.41,9.74-4.14,2.57-3.38,2.42-5.86,2.24-8.73s-.37-5.9,2-9.51a22.35,22.35,0,0,1,5.16-5.13,13.25,13.25,0,0,0,3.83-3.89c1.47-2.87.32-6.58-3.16-10.19l-.09-.07a2.12,2.12,0,1,1,2.56-3.39l.22.17.24.21c4.84,5,6.34,10.64,4,15.2a16.83,16.83,0,0,1-5,5.29,18.55,18.55,0,0,0-4.24,4.14c-1.6,2.43-1.48,4.4-1.33,6.91.2,3.09.44,6.92-3.08,11.56C36.64,94.49,32.08,96.55,26.62,96.55Z" />
      <path class="cls-2" d="M33.91,67.75a7.73,7.73,0,1,1,6.18-3h0A7.76,7.76,0,0,1,33.91,67.75Zm0-11.23a3.88,3.88,0,0,0-.48,0,3.4,3.4,0,0,0-2.31,1.35,3.49,3.49,0,1,0,5.56,4.22h0A3.48,3.48,0,0,0,36,57.24,3.42,3.42,0,0,0,33.93,56.52Z" />
    </g>
  </g>
</svg>