<svg xmlns="http://www.w3.org/2000/svg" viewBox="0 0 125.97 95.35">
  <defs>
    <style>.cls-1{fill:none;stroke:#32373e;stroke-linecap:round;stroke-miterlimit:10;stroke-width:3px;}</style>
  </defs>
  <title>CulinaryAsset 2</title>
  <g id="Layer_2" data-name="Layer 2">
    <g id="Icon_Set" data-name="Icon Set">
      <path class="cls-1" d="M63,83.86H86.53c24.24,0,34.67-12.84,37.75-17.7a1.2,1.2,0,0,0-1-1.84H2.71a1.2,1.2,0,0,0-1,1.84C4.77,71,15.2,83.86,39.44,83.86Z" />
      <path class="cls-1" d="M118.7,64.32C118.7,38.72,99,13.23,63,13.23S7.27,38.72,7.27,64.32" />
      <path class="cls-1" d="M41.15,27.06a40.62,40.62,0,0,0-24.4,37.26" />
      <path class="cls-1" d="M70.2,13.52a8,8,0,0,0,1-3.84,8.18,8.18,0,1,0-15.4,3.84" />
      <path class="cls-1" d="M104.48,93.85h-83l1.29-3.95a8.76,8.76,0,0,1,8.32-6H94.87a8.77,8.77,0,0,1,8.32,6Z" />
    </g>
  </g>
</svg>