<svg xmlns="http://www.w3.org/2000/svg" viewBox="0 0 125.97 95.35">
  <defs>
    <style>.cls-1{fill:none;stroke:#32373e;stroke-linecap:round;stroke-miterlimit:10;stroke-width:3px;}</style>
  </defs>
  <title>CulinaryAsset 2</title>
  <g id="Layer_2" data-name="Layer 2">
    <g id="Icon_Set" data-name="Icon Set">
      <path class="cls-1" d="M64,84.86H87.53c24.24,0,34.67-12.84,37.75-17.7a1.2,1.2,0,0,0-1-1.84H3.71a1.2,1.2,0,0,0-1,1.84C5.77,72,16.2,84.86,40.44,84.86Z" />
      <path class="cls-1" d="M119.7,65.32C119.7,39.72,100,14.23,64,14.23S8.27,39.72,8.27,65.32" />
      <path class="cls-1" d="M42.15,28.06a40.62,40.62,0,0,0-24.4,37.26" />
      <path class="cls-1" d="M71.2,14.52a8,8,0,0,0,1-3.84,8.18,8.18,0,1,0-15.4,3.84" />
      <path class="cls-1" d="M105.48,94.85h-83l1.29-3.95a8.76,8.76,0,0,1,8.32-6H95.87a8.77,8.77,0,0,1,8.32,6Z" />
    </g>
  </g>
</svg>