<?xml version="1.0" encoding="utf-8"?>
<!-- Generator: Adobe Illustrator 24.1.1, SVG Export Plug-In . SVG Version: 6.00 Build 0)  -->
<svg version="1.1" id="Layer_1" xmlns="http://www.w3.org/2000/svg" xmlns:xlink="http://www.w3.org/1999/xlink" x="0px" y="0px"
	 viewBox="0 0 128 97.3" style="enable-background:new 0 0 128 97.3;" xml:space="preserve">
<style type="text/css">
	.st0{fill:none;stroke:#32373e;stroke-width:6;stroke-linecap:round;stroke-miterlimit:10;}
</style>
<g id="Layer_2_1_">
	<g id="Icon_Set">
		<path class="st0" d="M64,84.9h23.5c24.2,0,34.7-12.8,37.8-17.7c0.4-0.6,0.2-1.3-0.4-1.7c-0.2-0.1-0.4-0.2-0.6-0.2H3.7
			c-0.7,0-1.2,0.6-1.2,1.2c0,0.2,0.1,0.4,0.2,0.6C5.8,72,16.2,84.9,40.4,84.9H64z"/>
		<path class="st0" d="M119.7,65.3c0-25.6-19.7-51.1-55.7-51.1S8.3,39.7,8.3,65.3"/>
		<path class="st0" d="M42.1,28.1c-14.8,6.5-24.4,21.1-24.4,37.3"/>
		<path class="st0" d="M71.2,14.5c0.7-1.2,1-2.5,1-3.8c0-4.5-3.7-8.2-8.2-8.2c-4.5,0-8.2,3.7-8.2,8.2c0,1.3,0.3,2.7,1,3.8"/>
		<path class="st0" d="M105.5,94.9h-83l1.3-3.9c1.2-3.6,4.5-6,8.3-6h63.8c3.8,0,7.1,2.4,8.3,6L105.5,94.9z"/>
	</g>
</g>
</svg>
