<svg xmlns="http://www.w3.org/2000/svg" viewBox="0 0 69.35 70.01"><defs><style>.cls-1{fill:#fff;}.cls-2{fill:none;stroke:#fff;stroke-linecap:round;stroke-linejoin:round;stroke-width:4px;}</style></defs><title>diamond</title><g id="Layer_2" data-name="Layer 2"><g id="Layer_1-2" data-name="Layer 1"><path class="cls-1" d="M23.62,20a.65.65,0,0,1,.65-.65h10.5A13.4,13.4,0,0,1,44.67,23a17.47,17.47,0,0,1,5,12.9c0,9.65-5.75,16.8-13.55,16.8H24.27a.65.65,0,0,1-.65-.65Zm11,29.15a10,10,0,0,0,7.3-2.75c2.25-2.35,3.6-6.35,3.6-10.5A15.05,15.05,0,0,0,42,25.73c-1.8-1.95-4.15-2.9-7.45-2.9H27.77v26.3Z"/><polygon class="cls-2" points="34.67 2 42.28 6.31 51.01 6.42 55.47 14 62.97 18.5 63.08 27.32 67.34 35 63.08 42.69 62.97 51.51 55.47 56.01 51.01 63.59 42.28 63.7 34.67 68.01 27.06 63.7 18.34 63.59 13.88 56.01 6.38 51.51 6.27 42.69 2 35 6.27 27.32 6.38 18.5 13.88 14 18.34 6.42 27.06 6.31 34.67 2"/></g></g></svg>