<svg xmlns="http://www.w3.org/2000/svg" viewBox="0 0 29.68 68.68"><defs><style>.cls-1{fill:#fff;}</style></defs><title>dollar1</title><g id="Layer_2" data-name="Layer 2"><g id="Layer_1-2" data-name="Layer 1"><path class="cls-1" d="M13.41,61.64a16.85,16.85,0,0,1-8-2.65A20,20,0,0,1,.2,54a1.26,1.26,0,0,1,0-1.3l2-3.39a.66.66,0,0,1,1.15-.07,20.45,20.45,0,0,0,3.84,3.89,13.16,13.16,0,0,0,6.28,2.69V36.48q-2.27-.79-4.5-1.82a15.33,15.33,0,0,1-4-2.65,12,12,0,0,1-2.83-4.08A15.1,15.1,0,0,1,1,21.84a16.55,16.55,0,0,1,.92-5.66A14.23,14.23,0,0,1,4.5,11.71,12.69,12.69,0,0,1,8.44,8.66a13.87,13.87,0,0,1,5-1.38V1a.91.91,0,0,1,.76-1h2.12a.91.91,0,0,1,.76,1V7.36a15.67,15.67,0,0,1,6.64,2.33,19.11,19.11,0,0,1,4.61,4.22,1.26,1.26,0,0,1,.05,1.36l-2,3.26a.65.65,0,0,1-1.12.07,15,15,0,0,0-3.43-3.25,12.75,12.75,0,0,0-4.74-2V30.54q2.32.87,4.59,2a15.59,15.59,0,0,1,4.05,2.85,13.18,13.18,0,0,1,2.89,4.35,16.81,16.81,0,0,1,1.1,6.49,21.11,21.11,0,0,1-.68,5.3,14.65,14.65,0,0,1-2.21,4.75,13.23,13.23,0,0,1-3.9,3.6,13.44,13.44,0,0,1-5.84,1.78v6a.91.91,0,0,1-.76,1H14.17a.91.91,0,0,1-.76-1ZM6.14,21.44a6.8,6.8,0,0,0,.57,2.89,6.24,6.24,0,0,0,1.55,2.1A12,12,0,0,0,10.55,28a20.24,20.24,0,0,0,2.86,1.27V13.13a7.92,7.92,0,0,0-5.24,2.54A8.21,8.21,0,0,0,6.14,21.44ZM24.56,46.76a8.52,8.52,0,0,0-.6-3.32A7.56,7.56,0,0,0,22.35,41,10,10,0,0,0,20,39.21a29.19,29.19,0,0,0-2.92-1.39v18a9.11,9.11,0,0,0,3.57-1.22,7.76,7.76,0,0,0,2.3-2.18,8.9,8.9,0,0,0,1.25-2.73A11.16,11.16,0,0,0,24.56,46.76Z"/></g></g></svg>