<?xml version="1.0" encoding="utf-8"?>
<!-- Generator: Adobe Illustrator 23.0.6, SVG Export Plug-In . SVG Version: 6.00 Build 0)  -->
<svg version="1.1" xmlns="http://www.w3.org/2000/svg" xmlns:xlink="http://www.w3.org/1999/xlink" x="0px" y="0px"
	 viewBox="0 0 109.1 75.9" style="enable-background:new 0 0 109.1 75.9;" xml:space="preserve">
<style type="text/css">
	.st0{fill:#2E3191;stroke:#231F20;stroke-miterlimit:10;}
	.st1{fill:#32373E;}
	.st2{fill:#FFFFFF;}
	.st3{fill:#EC1C24;stroke:#32373E;stroke-width:5;stroke-miterlimit:10;}
	.st4{fill:none;stroke:#FFFFFF;stroke-width:3;stroke-linecap:round;stroke-linejoin:round;stroke-miterlimit:10;}
	.st5{fill:none;stroke:#FFFFFF;stroke-width:3;stroke-linecap:round;stroke-miterlimit:10;}
	.st6{fill:none;stroke:#FFFFFF;stroke-width:3;stroke-miterlimit:10;}
	.st7{fill:none;stroke:#32373E;stroke-width:4;stroke-linecap:round;stroke-linejoin:round;stroke-miterlimit:10;}
	.st8{fill:#CA992C;}
	.st9{fill:none;stroke:#32373E;stroke-width:10;stroke-linecap:round;stroke-linejoin:round;stroke-miterlimit:10;}
	.st10{fill:none;stroke:#FFFFFF;stroke-width:2;stroke-linecap:round;stroke-linejoin:round;stroke-miterlimit:10;}
	.st11{fill:none;stroke:#32373E;stroke-width:4;stroke-linejoin:round;stroke-miterlimit:10;}
	.st12{fill:none;stroke:#CA992C;stroke-width:2;stroke-linecap:round;stroke-linejoin:round;stroke-miterlimit:10;}
	.st13{fill:none;stroke:#32373E;stroke-width:4;stroke-miterlimit:10;}
	.st14{fill:none;stroke:#32373E;stroke-width:3;stroke-linecap:round;stroke-linejoin:round;stroke-miterlimit:10;}
	.st15{fill:none;stroke:#32373E;stroke-width:3;stroke-linecap:round;stroke-miterlimit:10;}
	.st16{fill:none;stroke:#32373E;stroke-width:3;stroke-miterlimit:10;}
	.st17{fill:none;stroke:#FFFFFF;stroke-width:4;stroke-linecap:round;stroke-linejoin:round;stroke-miterlimit:10;}
	.st18{fill:#EC1C24;}
</style>
<g id="Layer_2">
</g>
<g id="Layer_1">
	<g>
		<path class="st1" d="M68.9,73.9L68.9,73.9c4-1.3,7.6-3.2,10.9-5.7c0,0,0,0,0,0c1.1-0.9,2.2-1.8,3.3-2.8c0,0,0.1,0,0.1-0.1
			c7.3-6.9,11.8-16.6,11.8-27.4c0-10.8-4.5-20.6-11.8-27.5c0,0,0,0-0.1,0c-1-1-2.1-1.9-3.2-2.8c0,0,0,0,0,0c-3.3-2.5-7-4.4-10.9-5.7
			c-0.3-0.1-0.6-0.2-0.8-0.3c-2-0.6-4.2-1.1-6.3-1.3h0c-1.2-0.2-2.4-0.2-3.6-0.3h0c-0.3,0-0.6,0-1,0h-0.5c0,0,0,0,0,0
			c-0.5,0-3.5-0.1-4.5-0.1C31.2,0,14.2,17,14.2,37.9c0,20.9,17,37.9,37.9,37.9c1,0,4-0.1,4.5-0.1c0,0,0,0,0.1,0h0.5c0.3,0,0.7,0,1,0
			h0c1.2,0,2.4-0.1,3.6-0.3h0c2.2-0.3,4.3-0.7,6.3-1.3C68.4,74.1,68.6,74,68.9,73.9z M19.2,37.9c0-10,4.5-18.9,11.5-25
			c5.8-5,13.3-8,21.5-8C70.2,5,85,19.8,85,37.9c0,18.1-14.8,32.9-32.9,32.9c-8.2,0-15.7-3-21.5-8C23.6,56.8,19.2,47.9,19.2,37.9z"/>
		<path class="st1" d="M53.9,63.3v-3.6c2.2-0.2,4.2-0.8,5.9-1.6c2.4-1.2,4.2-2.8,5.4-4.8c1.2-2,1.8-4.3,1.8-6.9
			c0-2.1-0.3-3.9-1.1-5.4c-0.7-1.5-1.7-2.7-3-3.6c-1.3-1-2.8-1.8-4.6-2.5c-1.4-0.5-2.9-1-4.5-1.5c-0.5-0.1-1-0.3-1.5-0.4
			c-1.5-0.4-2.7-0.8-3.5-1c-0.1,0-0.2-0.1-0.3-0.1c-0.8-0.3-1.5-0.6-2.3-1s-1.3-1-1.8-1.6c-0.4-0.6-0.6-1.3-0.6-2.2
			c0-1.4,0.6-2.5,1.9-3.5c0.9-0.7,1.9-1.1,3.1-1.3c0.6-0.1,1.2-0.2,1.9-0.2c1.2,0,2.3,0.1,3.1,0.4c0.7,0.2,1.3,0.5,1.7,0.9
			c1,0.9,1.9,2.1,2.6,3.7c0.6,1.1,1.1,1.9,1.6,2.4c0.5,0.5,1.2,0.7,2.1,0.7c1,0,1.8-0.4,2.5-1.2s1-1.7,1-2.8c0-1.1-0.3-2.3-0.8-3.4
			c-0.5-1.2-1.4-2.3-2.6-3.4c-1.2-1.1-2.6-1.9-4.4-2.6c-1.1-0.4-2.3-0.7-3.7-0.8v-3.6h-5v3.6c-2,0.2-3.9,0.7-5.5,1.4
			c-2.3,1-4,2.4-5.1,4.2c-1.2,1.8-1.8,3.9-1.8,6.2c0,2.4,0.6,4.5,1.7,6.1s2.7,2.9,4.5,3.9c1.7,0.8,3.8,1.6,6.2,2.3
			c0.3,0.1,0.6,0.2,0.9,0.2c1.6,0.4,3,0.8,4.1,1.1c0.4,0.1,0.7,0.2,1,0.3c1.3,0.5,2.3,1.1,3.1,2c0.8,0.9,1.2,2,1.2,3.4
			c0,1.8-0.7,3.2-2.2,4.4c-0.9,0.7-1.9,1.2-3.1,1.5c-0.8,0.2-1.7,0.3-2.7,0.3c-0.8,0-1.6-0.1-2.3-0.2c-0.7-0.2-1.3-0.4-1.9-0.7
			c-1.1-0.6-1.9-1.3-2.5-2.2c-0.6-0.9-1.1-2-1.6-3.4c-0.4-1.1-0.9-2-1.5-2.6c-0.6-0.6-1.3-0.9-2.1-0.9c-1,0-1.9,0.4-2.6,1.1
			c-0.7,0.7-1,1.6-1,2.7c0,1.8,0.6,3.6,1.7,5.5c1.1,1.9,2.6,3.4,4.4,4.5c2,1.2,4.3,2,7.1,2.2v3.6H53.9z"/>
	</g>
</g>
</svg>
