<svg xmlns="http://www.w3.org/2000/svg" viewBox="0 0 78.87 68.85"><defs><style>.cls-1{fill:none;stroke:#32373e;stroke-linecap:round;stroke-linejoin:round;stroke-width:4px;}.cls-2{fill:#32373e;}</style></defs><title>experience</title><g id="Layer_2" data-name="Layer 2"><g id="Layer_1-2" data-name="Layer 1"><line class="cls-1" x1="2" y1="19.4" x2="76.87" y2="19.4"/><polygon class="cls-1" points="64.38 8.9 64.38 2 58.04 2 58.04 8.9 19.62 8.9 19.62 2 13.28 2 13.28 8.9 2 8.9 2 66.85 76.87 66.85 76.87 8.9 64.38 8.9"/><rect class="cls-2" x="9.55" y="28.27" width="6.15" height="6.15"/><rect class="cls-2" x="23.03" y="28.27" width="6.15" height="6.15"/><rect class="cls-2" x="36.5" y="28.27" width="6.15" height="6.15"/><rect class="cls-2" x="49.98" y="28.27" width="6.15" height="6.15"/><rect class="cls-2" x="63.45" y="28.27" width="6.15" height="6.15"/><rect class="cls-2" x="9.55" y="39.99" width="6.15" height="6.15"/><rect class="cls-2" x="23.03" y="39.99" width="6.15" height="6.15"/><rect class="cls-2" x="36.5" y="39.99" width="6.15" height="6.15"/><rect class="cls-2" x="49.98" y="39.99" width="6.15" height="6.15"/><rect class="cls-2" x="63.45" y="39.99" width="6.15" height="6.15"/><rect class="cls-2" x="9.55" y="52.53" width="6.15" height="6.15"/><rect class="cls-2" x="23.03" y="52.53" width="6.15" height="6.15"/><rect class="cls-2" x="36.5" y="52.53" width="6.15" height="6.15"/><rect class="cls-2" x="49.98" y="52.53" width="6.15" height="6.15"/><rect class="cls-2" x="63.45" y="52.53" width="6.15" height="6.15"/></g></g></svg>