<svg xmlns="http://www.w3.org/2000/svg" viewBox="0 0 69.35 70.01"><defs><style>.cls-1{fill:#fff;}.cls-2{fill:none;stroke:#fff;stroke-linecap:round;stroke-linejoin:round;stroke-width:4px;}</style></defs><title>gold</title><g id="Layer_2" data-name="Layer 2"><g id="Layer_1-2" data-name="Layer 1"><path class="cls-1" d="M43.35,48.91c-2.4,3.14-5.1,4.45-9.31,4.45a11.91,11.91,0,0,1-9.5-4.26c-2.8-3.25-4.25-7.6-4.25-12.75,0-10.6,5.8-17.7,14.45-17.7A11.48,11.48,0,0,1,43.8,22.5a12.38,12.38,0,0,1,2.71,5.15.65.65,0,0,1-.48.81l-2.67.65a.66.66,0,0,1-.78-.47,8.38,8.38,0,0,0-2-3.84,8.56,8.56,0,0,0-6.26-2.6A8.1,8.1,0,0,0,27,26.5a20.44,20.44,0,0,0-2.2,9.7A19.85,19.85,0,0,0,27,45.65a8.84,8.84,0,0,0,7.6,4.3c7.82.07,8.59-10.56,8.59-10.56l-8,0a.66.66,0,0,1-.65-.65V36.5a.66.66,0,0,1,.65-.65H46.4c.35,0,.7-.06.65.65C46.34,45.61,43.35,48.91,43.35,48.91Z"/><polygon class="cls-2" points="34.67 2 42.28 6.31 51.01 6.42 55.47 14 62.97 18.5 63.08 27.32 67.34 35 63.08 42.69 62.97 51.51 55.47 56.01 51.01 63.59 42.28 63.7 34.67 68.01 27.06 63.7 18.34 63.59 13.88 56.01 6.38 51.51 6.27 42.69 2 35 6.27 27.32 6.38 18.5 13.88 14 18.34 6.42 27.06 6.31 34.67 2"/></g></g></svg>