<?xml version="1.0" encoding="utf-8"?>
<!-- Generator: Adobe Illustrator 24.1.1, SVG Export Plug-In . SVG Version: 6.00 Build 0)  -->
<svg version="1.1" id="Layer_1" xmlns="http://www.w3.org/2000/svg" xmlns:xlink="http://www.w3.org/1999/xlink" x="0px" y="0px"
	 viewBox="0 0 76.8 70.6" style="enable-background:new 0 0 76.8 70.6;" xml:space="preserve">
<style type="text/css">
	.st0{fill:#32373E;}
</style>
<g id="Layer_2_1_">
	<path class="st0" d="M74.1,27.1L42.3,2c-2.3-1.7-5.5-1.7-7.8,0L2.6,27.1C1,28.4,0.3,30.5,1,32.5c0.9,2.3,3.1,3.7,5.6,3.5H12v30.1
		c-0.1,2,1.5,3.7,3.6,3.8h45.6c0,0,0,0,0.1,0c2.1-0.1,3.7-1.8,3.6-3.9V36h5.4c2.4,0.2,4.7-1.3,5.5-3.5
		C76.4,30.5,75.8,28.4,74.1,27.1z M32.9,65.8H26l0.1-13.4h6.8V65.8z M71.7,31.7c-0.5,1-1.5,1.6-2.6,1.5H61V65c0,0.4-0.2,0.7-0.6,0.8
		H36.2V51.7c0-1.6-1.3-2.9-2.9-2.9h-7.6c-1.6,0-2.9,1.3-2.9,2.9v14.1h-6.5c-0.3,0-0.6-0.4-0.6-0.8V33.1H7.6
		c-1.1,0.1-2.1-0.5-2.6-1.4c-0.2-0.7,0-1.5,0.6-2L36.4,5.5c0.6-0.4,1.3-0.6,2-0.6c0.7,0,1.4,0.2,2,0.6l30.7,24.2
		C71.7,30.1,72,30.9,71.7,31.7z"/>
</g>
</svg>
