<svg xmlns="http://www.w3.org/2000/svg" viewBox="0 0 75.26 69.13"><defs><style>.cls-1{fill:#fff;}</style></defs><title>home2</title><g id="Layer_2" data-name="Layer 2"><g id="Layer_1-2" data-name="Layer 1"><path class="cls-1" d="M60.41,69.13H14.84a3.72,3.72,0,0,1-3.62-3.82v-30H5.81A5.56,5.56,0,0,1,.27,31.75a4.81,4.81,0,0,1,1.63-5.4L33.71,1.26a6.73,6.73,0,0,1,7.84,0L73.36,26.35A4.81,4.81,0,0,1,75,31.75a5.57,5.57,0,0,1-5.55,3.53H64v30A3.73,3.73,0,0,1,60.41,69.13ZM37.63,3a3.47,3.47,0,0,0-2.06.62L3.75,28.71a1.81,1.81,0,0,0-.65,2.05,2.67,2.67,0,0,0,2.71,1.52h8.41v33c0,.45.28.82.62.82H60.41a.75.75,0,0,0,.63-.82v-33h8.4a2.66,2.66,0,0,0,2.71-1.52,1.82,1.82,0,0,0-.65-2.06L39.69,3.62A3.49,3.49,0,0,0,37.63,3Zm-.45,66.1H27.9a2,2,0,0,1-2-2V47.24a2,2,0,0,1,2-2h9.28a2,2,0,0,1,2,2V67.12A2,2,0,0,1,37.18,69.1Z"/></g></g></svg>