<svg xmlns="http://www.w3.org/2000/svg" viewBox="0 0 90.78 99"><defs><style>.cls-1{fill:#fff;}</style></defs><title>SportsLeisureAsset 1</title><g id="Layer_2" data-name="Layer 2"><g id="Layer_1-2" data-name="Layer 1"><path class="cls-1" d="M45.39,23.71l-1.45,2.94-3.25.47L43,29.41l-.56,3.24,2.91-1.53,2.9,1.53-.55-3.24,2.35-2.29-3.25-.47ZM72.55,42.27A2.51,2.51,0,0,0,70.26,45a3,3,0,0,1-.42,2.14,1.88,1.88,0,0,1-1.19.49A2.33,2.33,0,0,1,67,47.09a1.81,1.81,0,0,1-.32-1.29c0-1.65,1.85-3.53,2.48-4a.27.27,0,0,1,.08-.07C90.46,22.56,90.91,12.2,90.76,10.18a10,10,0,0,0-19-4.78,2.47,2.47,0,0,0-1.69-.67h0l-24.72,0-24.73,0h0A2.51,2.51,0,0,0,19,5.39a10.27,10.27,0,0,0-2-2.63A10,10,0,0,0,0,10.18c-.15,2,.3,12.38,21.54,31.5l.08.07c.51.42,2.43,2.35,2.48,4,0,1.16-.38,1.38-.61,1.5a3.21,3.21,0,0,1-1.38.3,1.92,1.92,0,0,1-1.2-.49A3.08,3.08,0,0,1,20.51,45a2.5,2.5,0,1,0-5-.41,7.45,7.45,0,0,0,1.79,6,6.79,6.79,0,0,0,4.82,2h.12a8,8,0,0,0,3.62-.9,5.81,5.81,0,0,0,1.8-1.48A22.35,22.35,0,0,0,30.85,54c1.95,1.83,3.92,3.55,5.86,5.11l2,4.21v8.55A9.15,9.15,0,0,0,36.51,76H30.15a2.5,2.5,0,0,0-.43,5V94a2.5,2.5,0,0,0,.43,5H60.63a2.5,2.5,0,0,0,.42-5V80.92a2.5,2.5,0,0,0-.42-5H54.26a9.13,9.13,0,0,0-2.19-4.08V63.33l2-4.21C56,57.56,58,55.84,59.93,54a23.11,23.11,0,0,0,3.16-3.78,3.73,3.73,0,0,0,.26.3,7.12,7.12,0,0,0,5.18,2.07h.12a6.8,6.8,0,0,0,4.81-2,7.48,7.48,0,0,0,1.79-6A2.5,2.5,0,0,0,72.55,42.27Zm-.29-26.74c.14.22.29.44.45.65a2.5,2.5,0,0,0,4-3A5.06,5.06,0,0,1,80.84,5a5.07,5.07,0,0,1,4.92,5.21,3,3,0,0,0,0,.42c0,.08.27,8.06-16.4,24.07A119.17,119.17,0,0,0,72.26,15.53ZM5,10.63a3,3,0,0,0,0-.42,5.06,5.06,0,1,1,10.11-.28,5,5,0,0,1-1,3.21,2.5,2.5,0,0,0,4,3c.16-.21.31-.43.45-.65A118.06,118.06,0,0,0,21.4,34.7C4.64,18.6,5,10.64,5,10.63ZM56.05,94H34.72V87.88H56.05Zm0-13v2.92H34.72V81Zm.45-30.6c-2,1.89-4,3.64-6,5.2a2.57,2.57,0,0,0-.71.89L47.31,61.7a2.46,2.46,0,0,0-.24,1.07V73A2.49,2.49,0,0,0,48,74.9a4.13,4.13,0,0,1,.71.74H42.08a4.13,4.13,0,0,1,.71-.74A2.49,2.49,0,0,0,43.71,73V62.77a2.46,2.46,0,0,0-.24-1.07L41,56.45a2.57,2.57,0,0,0-.71-.89c-2-1.56-4-3.31-6-5.2C25.09,41.72,23.5,17.59,23.22,9.73l22.17,0h0l22.17,0C67.29,17.58,65.7,41.71,56.5,50.36ZM53,40a2.38,2.38,0,0,1-1.54.58,2.33,2.33,0,0,1-.94-.2l-1.39-.6-.71.38-.69,1.07a2.48,2.48,0,0,1-.6.61l3.84,7.87,2.13-3.65,4.24.53L53.61,39A2.3,2.3,0,0,1,53,40Zm4.56-12.94-2.35-1.53s0,0,0,0l1.12-2.58a1.28,1.28,0,0,0-.49-1.57,1.21,1.21,0,0,0-.62-.18L52.41,21a0,0,0,0,1,0,0l-.32-2.79a1.25,1.25,0,0,0-1.24-1.11,1.26,1.26,0,0,0-.57.14l-2.5,1.27a0,0,0,0,1,0,0L46,16.25a1.24,1.24,0,0,0-1-.51h-.13a1.54,1.54,0,0,0-1,.69l-1.44,2.22s0,0,0,0l-2.57-1.12a1.22,1.22,0,0,0-1.42.3,1.28,1.28,0,0,0-.33.84L38,21.44a0,0,0,0,1,0,0l-2.75.31a1.28,1.28,0,0,0-.66.26,1.25,1.25,0,0,0-.35,1.56l1.27,2.5s0,0,0,.05l-2.25,1.67a1.25,1.25,0,0,0-.51,1,1.28,1.28,0,0,0,.57,1l2.35,1.53a0,0,0,0,1,0,0L34.49,34A1.26,1.26,0,0,0,35,35.6a1.22,1.22,0,0,0,.62.19l2.77.14a0,0,0,0,1,0,0l.32,2.79a1.26,1.26,0,0,0,.65,1,1.23,1.23,0,0,0,.59.15,1.26,1.26,0,0,0,.57-.14L43,38.45h0l1.66,2.26a1.26,1.26,0,0,0,1,.51h0a1.25,1.25,0,0,0,1-.57l1.52-2.36a0,0,0,0,1,0,0l2.57,1.12a1.24,1.24,0,0,0,.5.1,1.22,1.22,0,0,0,.82-.31,1.31,1.31,0,0,0,.43-.93l.14-2.75a0,0,0,0,1,0,0l2.78-.32a1.28,1.28,0,0,0,1-.65,1.3,1.3,0,0,0,0-1.17l-1.27-2.5a0,0,0,0,1,0,0l2.25-1.67a1.24,1.24,0,0,0,.5-1.05A1.22,1.22,0,0,0,57.53,27.08Zm-12.14,8a6.56,6.56,0,1,1,6.53-6.55A6.55,6.55,0,0,1,45.39,35.11Zm-2.44,5-.4-.22L41,40.7A2.47,2.47,0,0,1,40,41a2.4,2.4,0,0,1-1.11-.28,2.29,2.29,0,0,1-1.12-1.43l-3.6,7.37,4.24-.53,2.13,3.65,3.85-7.89a2.47,2.47,0,0,1-.49-.48Z"/></g></g></svg>