<svg xmlns="http://www.w3.org/2000/svg" viewBox="0 0 59.06 66.17"><defs><style>.cls-1{fill:#32373e;}</style></defs><title>music-gray</title><g id="Layer_2" data-name="Layer 2"><g id="Layer_1-2" data-name="Layer 1"><g id="music"><path class="cls-1" d="M58.7,35.38a1.49,1.49,0,0,0-1.1-.5H48.35a1.45,1.45,0,0,0-1.44,1.25l-1.19,8.44a4.92,4.92,0,0,0-.78-.07c-1.84,0-3.34,1-3.34,2.26S43.1,49,44.94,49a3.72,3.72,0,0,0,3-1.24,1.45,1.45,0,0,0,.43-.84l1.29-9.16h6.32l-1,6.76a5.24,5.24,0,0,0-.7,0c-1.84,0-3.33,1-3.33,2.26S52.43,49,54.27,49s3.15-.91,3.3-2.07h0v-.07a.5.5,0,0,0,0-.12h0L59,36.54a1.44,1.44,0,0,0-.34-1.16"/><path class="cls-1" d="M18.24,66.17H18a18.57,18.57,0,0,1-10.8-4C.32,57-2.06,48.39,2,43.11A10.48,10.48,0,0,1,9,38.94a6.7,6.7,0,0,0,4.32-2.14,12.66,12.66,0,0,0,1.95-3.56A11.47,11.47,0,0,1,17.85,29c2.39-2.2,6-2.41,9.86-.61L42.42,10.14a5.41,5.41,0,0,1,1-4.35l2.76-3.63A5.39,5.39,0,0,1,49.71.06a5.22,5.22,0,0,1,4,1,5.35,5.35,0,0,1,1,7.5l-2.76,3.64A5.39,5.39,0,0,1,48,14.34L36.26,30.73a1.45,1.45,0,1,1-2.37-1.68L46,12a1.48,1.48,0,0,1,1.32-.6,2.47,2.47,0,0,0,2.21-1l2.76-3.64a2.45,2.45,0,0,0-.4-3.43,2.31,2.31,0,0,0-1.77-.44,2.52,2.52,0,0,0-1.64,1L45.74,7.55a2.47,2.47,0,0,0-.35,2.4,1.45,1.45,0,0,1-.23,1.43L29.21,31.13a1.45,1.45,0,0,1-2,.24l-.05,0c-3-1.64-5.7-1.72-7.32-.22A9,9,0,0,0,18,34.36a15.16,15.16,0,0,1-2.44,4.35,9.49,9.49,0,0,1-5.9,3.08c-1.93.41-3.6.77-5.35,3.08-3,4-.92,10.74,4.73,15a15.6,15.6,0,0,0,9.08,3.36,8,8,0,0,0,6.67-2.83,7.57,7.57,0,0,0,1.53-6,9.47,9.47,0,0,1,1.39-6.52A15.47,15.47,0,0,1,31.2,44.4a9,9,0,0,0,2.62-2.66c1-2,.22-4.51-2.16-7l-.07,0a1.46,1.46,0,1,1,1.76-2.32l.15.11a1.22,1.22,0,0,1,.17.15C37,36,38,39.94,36.41,43.07A11.26,11.26,0,0,1,33,46.69a12.67,12.67,0,0,0-2.91,2.84c-1.09,1.66-1,3-.9,4.73a10.46,10.46,0,0,1-2.12,7.92,10.71,10.71,0,0,1-8.83,4"/><path class="cls-1" d="M23.25,38.74l-.32,0a2.39,2.39,0,0,0-2.05,2.7A2.37,2.37,0,0,0,21.8,43a2.39,2.39,0,1,0,1.45-4.3m0,7.7a5.31,5.31,0,1,1,4.23-2.1h0a5.3,5.3,0,0,1-4.23,2.1"/></g></g></g></svg>