<svg xmlns="http://www.w3.org/2000/svg" viewBox="0 0 118.75 118.75">
  <defs>
    <style>.cls-1{fill:#32373e;}</style>
  </defs>
  <title>OutdoorAdventureAsset 1</title>
  <g id="Layer_2" data-name="Layer 2">
    <g id="Layer_1-2" data-name="Layer 1">
      <path class="cls-1" d="M13.92,33.88H41.77a13.76,13.76,0,0,0,.6-27.5h-.23A16,16,0,0,0,29.43,0a15.81,15.81,0,0,0-13.9,8.18C5,8.49,1.25,15,1.25,21.12A12.72,12.72,0,0,0,13.92,33.88Zm2.39-19.46c.22,0,.5,0,.81.06a3.12,3.12,0,0,0,3.27-2,9.65,9.65,0,0,1,17.39-1.43,3.13,3.13,0,0,0,2.7,1.55H42.1a7.51,7.51,0,0,1-.33,15H13.92A6.47,6.47,0,0,1,7.5,21.12C7.5,16.68,10.46,14.42,16.31,14.42ZM64,109.11A3.13,3.13,0,1,0,60.9,106,3.13,3.13,0,0,0,64,109.11Zm54.72,6.44c0-.12,0-.23,0-.35s0-.18,0-.27l-.09-.29c0-.1-.07-.21-.12-.31s0,0,0-.07l-46.25-95a3.13,3.13,0,0,0-5.7.17L49.37,60.71a3.12,3.12,0,0,0,1.69,4.08,3.06,3.06,0,0,0,1.73.19,3.12,3.12,0,0,0,1.85-.38L65.1,58.78,67.81,62a3.12,3.12,0,0,0,4.15.58l4.9-3.32,10.58,5.61,23.19,47.62H8.41L19,93.28h0a3.06,3.06,0,0,0,1.4-.33L31.1,87.6l3.39,2.74a3.12,3.12,0,0,0,4.3-.34l2.71-3,9.24,4.4a3.06,3.06,0,0,0,1.75.27l4,7.38A3.13,3.13,0,0,0,62,96L39,54a3.1,3.1,0,0,0-2.74-1.63,3.05,3.05,0,0,0-2.74,1.62L.39,114.12a.75.75,0,0,0-.06.13,3.05,3.05,0,0,0-.13.32,1.43,1.43,0,0,0-.09.27,1.55,1.55,0,0,0-.06.31,1.73,1.73,0,0,0,0,.32.78.78,0,0,0,0,.16s0,.08,0,.13,0,.21,0,.32,0,.2.05.3l.09.28c0,.1.07.19.11.29l.14.25a2.33,2.33,0,0,0,.17.26,2.11,2.11,0,0,0,.19.23,2.18,2.18,0,0,0,.21.22l.22.19.28.19.11.07.11,0a2.72,2.72,0,0,0,.5.19,1.06,1.06,0,0,0,.19.06,3.61,3.61,0,0,0,.67.09H115.7a2.88,2.88,0,0,0,.59-.06l.17-.06a2.6,2.6,0,0,0,.47-.16l.06,0a1.51,1.51,0,0,0,.17-.1,1.75,1.75,0,0,0,.29-.18,2.11,2.11,0,0,0,.23-.19,2.09,2.09,0,0,0,.22-.2l.2-.24.17-.24c0-.09.1-.18.14-.27s.09-.18.13-.27l.09-.29c0-.1.05-.19.07-.29s0-.23,0-.35,0-.12,0-.18S118.74,115.58,118.74,115.55ZM78.13,52.86a3.13,3.13,0,0,0-3.22.18l-4.12,2.79-2.57-3a3.11,3.11,0,0,0-3.91-.72l-6,3.33L69.59,28.23l13.2,27.11ZM36.26,61.94,47.79,83,42.07,80.3a3.13,3.13,0,0,0-3.68.75l-2.28,2.56-2.63-2.13a3.14,3.14,0,0,0-3.37-.37l-6.09,3Z" />
    </g>
  </g>
</svg>