<svg xmlns="http://www.w3.org/2000/svg" viewBox="0 0 69.35 70.01"><defs><style>.cls-1{fill:none;stroke:#32373e;stroke-linecap:round;stroke-linejoin:round;stroke-width:4px;}.cls-2{fill:#32373e;}</style></defs><title>platinum-gray</title><g id="Layer_2" data-name="Layer 2"><g id="Layer_1-2" data-name="Layer 1"><polygon class="cls-1" points="34.67 2 42.28 6.31 51.01 6.42 55.47 14 62.97 18.5 63.08 27.32 67.34 35 63.08 42.69 62.97 51.51 55.47 56.01 51.01 63.59 42.28 63.7 34.67 68.01 27.06 63.7 18.34 63.59 13.88 56.01 6.38 51.51 6.27 42.69 2 35 6.27 27.32 6.38 18.5 13.88 14 18.34 6.42 27.06 6.31 34.67 2"/><path class="cls-2" d="M26.05,52.09V21.18a1,1,0,0,1,1-1H37.67a11,11,0,0,1,7,2.07A10.09,10.09,0,0,1,48.31,30c0,5.67-4.23,9.71-10.19,9.71h-8V52.09a1,1,0,0,1-1,1H27A1,1,0,0,1,26.05,52.09ZM37.67,36.32c3.89,0,6.46-2.51,6.46-6.31A6,6,0,0,0,38,23.66H30.14V36.32Z"/></g></g></svg>