<svg xmlns="http://www.w3.org/2000/svg" viewBox="0 0 50 68.79"><defs><style>.cls-1,.cls-3{fill:none;stroke-linejoin:round;}.cls-1{stroke:#32373e;stroke-width:4px;}.cls-2{fill:#32373e;}.cls-3{stroke:#ca992c;stroke-linecap:round;stroke-width:2px;}</style></defs><title>tier</title><g id="Layer_2" data-name="Layer 2"><g id="Layer_1-2" data-name="Layer 1"><g id="Tier_docs" data-name="Tier docs"><polygon class="cls-1" points="42.37 66.79 2 66.79 2 6.37 28.7 6.37 28.7 19.7 42.37 19.58 42.37 66.79"/><path class="cls-1" d="M28.7,6.37,42.37,19.58Z"/><path class="cls-2" d="M27.82,56.24h0A14.81,14.81,0,0,0,32.09,54h0a16.6,16.6,0,0,0,1.28-1.08l0,0a14.83,14.83,0,0,0,0-21.53l0,0a14.75,14.75,0,0,0-1.27-1.08h0A14.75,14.75,0,0,0,27.81,28l-.33-.1A14.48,14.48,0,0,0,25,27.4h0c-.46,0-.93-.09-1.41-.1H23l-1.76,0a14.88,14.88,0,0,0,0,29.75L23,57h.6c.48,0,1,0,1.41-.11h0a14.47,14.47,0,0,0,2.49-.52ZM8.31,42.14a12.92,12.92,0,1,1,4.49,9.78A12.89,12.89,0,0,1,8.31,42.14Z"/><path class="cls-2" d="M21.93,52.07V50.65A6.73,6.73,0,0,0,24.25,50a4.86,4.86,0,0,0,2.12-1.87,5.15,5.15,0,0,0,.72-2.7,5,5,0,0,0-.41-2.12,3.89,3.89,0,0,0-1.17-1.43,6.93,6.93,0,0,0-1.8-1c-.55-.2-1.14-.39-1.78-.57l-.59-.15L20,39.83l-.12,0a5.13,5.13,0,0,1-.9-.41,2.19,2.19,0,0,1-.69-.62A1.46,1.46,0,0,1,18,37.9a1.68,1.68,0,0,1,.75-1.37A2.69,2.69,0,0,1,20,36,4.27,4.27,0,0,1,20.7,36a4,4,0,0,1,1.23.16,1.87,1.87,0,0,1,.67.36,4.28,4.28,0,0,1,1,1.47,3.71,3.71,0,0,0,.61.94,1.07,1.07,0,0,0,.81.29,1.24,1.24,0,0,0,1-.48,1.63,1.63,0,0,0,.4-1.08,3.17,3.17,0,0,0-.32-1.34,4.27,4.27,0,0,0-1-1.32,5.13,5.13,0,0,0-1.73-1,6.63,6.63,0,0,0-1.44-.32V32.2H20v1.42a6.72,6.72,0,0,0-2.15.53,4.36,4.36,0,0,0-2,1.63,4.28,4.28,0,0,0-.7,2.43,4.16,4.16,0,0,0,.66,2.4,4.64,4.64,0,0,0,1.78,1.52A13.74,13.74,0,0,0,20,43l.36.09c.64.15,1.17.3,1.61.44l.39.14a3,3,0,0,1,1.21.78A1.92,1.92,0,0,1,24,45.81a2.16,2.16,0,0,1-.87,1.74,3,3,0,0,1-1.2.57,4.49,4.49,0,0,1-1.07.12,5,5,0,0,1-.9-.08,2.52,2.52,0,0,1-.73-.27,2.66,2.66,0,0,1-1-.87,6.78,6.78,0,0,1-.63-1.32,3,3,0,0,0-.59-1,1.18,1.18,0,0,0-.84-.34,1.32,1.32,0,0,0-1,.44,1.5,1.5,0,0,0-.4,1A4.18,4.18,0,0,0,15.46,48a5.21,5.21,0,0,0,1.71,1.78,6.29,6.29,0,0,0,2.79.87v1.42Z"/></g><line class="cls-3" x1="42.18" y1="12.61" x2="49" y2="12.98"/><line class="cls-3" x1="39.97" y1="10.24" x2="46.22" y2="3.74"/><line class="cls-3" x1="37.49" y1="8.47" x2="37.88" y2="1"/></g></g></svg>