<svg xmlns="http://www.w3.org/2000/svg" viewBox="0 0 66.25 58.76"><defs><style>.cls-1,.cls-2,.cls-3{fill:none;stroke:#fff;stroke-width:3px;}.cls-1,.cls-2{stroke-linecap:round;}.cls-1{stroke-linejoin:round;}.cls-2,.cls-3{stroke-miterlimit:10;}</style></defs><title>wine</title><g id="Layer_2" data-name="Layer 2"><g id="Layer_1-2" data-name="Layer 1"><g id="wine"><path class="cls-1" d="M57.76,53.7c3.86,0,7,.8,7,1.78s-3.13,1.78-7,1.78h-5M61.82,23s1.51,6.56.86,11.29a6,6,0,0,1-3,4.63,3.85,3.85,0,0,1-3.76,0,6.06,6.06,0,0,1-3-4.63C52.2,29.59,53.7,23,53.7,23m4.06,16.41V55.28m-3-25.53h5.92"/><path class="cls-2" d="M35.53,7.69V7a1.22,1.22,0,0,1,1.22-1.23h4.88A1.22,1.22,0,0,1,42.84,7v.71M41.19,5.75V4a.58.58,0,0,0-.59-.59H37.77a.59.59,0,0,0-.59.59V5.75m-8.06,46.6a23,23,0,0,1,0-45.93c.79,0,1.56,0,2.33.11M29.12,57.26a27.88,27.88,0,0,1,0-55.76,28.11,28.11,0,0,1,4.33.34"/><path class="cls-3" d="M33.34,34.11H46.52m0,10.53H33.34M41.57,7V12.2s-.2,3.08,2.27,9.39c0,0,2.46,6.75,2.46,11.91v21a2.63,2.63,0,0,1-2.43,2.76h-8.1a2.64,2.64,0,0,1-2.43-2.76v-21c0-5.16,2.46-11.91,2.46-11.91,2.47-6.31,2.27-9.39,2.27-9.39V7"/><path class="cls-2" d="M28.42,40.44H9.54m18.88-11H6.55M31,18.44H9.47"/></g></g></g></svg>