<svg xmlns="http://www.w3.org/2000/svg" viewBox="0 0 135.88 120.53">
  <defs>
    <style>.cls-1,.cls-2,.cls-3{fill:none;stroke:#32373e;stroke-width:3px;}.cls-1,.cls-2{stroke-linecap:round;}.cls-1{stroke-linejoin:round;}.cls-2,.cls-3{stroke-miterlimit:10;}</style>
  </defs>
  <title>WineSpiritsAsset 1</title>
  <g id="Layer_2" data-name="Layer 2">
    <g id="Icon_Set" data-name="Icon Set">
      <line class="cls-1" x1="111.37" y1="60.07" x2="125.07" y2="60.07" />
      <line class="cls-1" x1="118.22" y1="80.84" x2="118.22" y2="114.77" />
      <path class="cls-1" d="M127.62,45.66s3.47,14.07,2,24.2a13,13,0,0,1-7,9.92,9.46,9.46,0,0,1-8.7,0,13,13,0,0,1-7-9.92c-1.48-10.13,2-24.2,2-24.2" />
      <path class="cls-1" d="M118.22,111.39c8.93,0,16.16,1.71,16.16,3.82S127.15,119,118.22,119H106.66" />
      <path class="cls-2" d="M60.26,119A58.77,58.77,0,1,1,69.47,2.22" />
      <path class="cls-2" d="M60.26,108.67a48.41,48.41,0,0,1,0-96.81,47.69,47.69,0,0,1,4.95.25" />
      <path class="cls-2" d="M85.94,10.46V6.79a1.25,1.25,0,0,0-1.25-1.25h-6a1.25,1.25,0,0,0-1.25,1.25v3.67" />
      <path class="cls-2" d="M73.89,14.55v-1.5a2.59,2.59,0,0,1,2.59-2.59H86.87a2.58,2.58,0,0,1,2.58,2.59v1.5" />
      <path class="cls-3" d="M85.7,14.32V25.18s-.46,6.42,5.19,19.55c0,0,5.64,14.06,5.64,24.82v43.73A5.7,5.7,0,0,1,91,119H72.37a5.7,5.7,0,0,1-5.56-5.74V69.55c0-10.76,5.65-24.82,5.65-24.82,5.65-13.13,5.19-19.55,5.19-19.55V14.32" />
      <line class="cls-3" x1="97.04" y1="92.74" x2="66.81" y2="92.74" />
      <line class="cls-3" x1="66.81" y1="70.82" x2="97.04" y2="70.82" />
      <line class="cls-2" x1="65.21" y1="36.25" x2="18.23" y2="36.25" />
      <line class="cls-2" x1="59.53" y1="60.39" x2="11.86" y2="60.39" />
      <line class="cls-2" x1="59.53" y1="84.53" x2="18.38" y2="84.53" />
    </g>
  </g>
</svg>