<svg xmlns="http://www.w3.org/2000/svg" viewBox="0 0 60.61 66.17"><defs><style>.cls-1{fill:#fff;}</style></defs><title>art</title><g id="Layer_2" data-name="Layer 2"><g id="Layer_1-2" data-name="Layer 1"><g id="art"><path class="cls-1" d="M35.61,26.47a2.24,2.24,0,0,1-.68,1.59,2.33,2.33,0,0,1-1.6.64h-.12a2.25,2.25,0,0,1-2.1-2.28,2.25,2.25,0,0,1,2.24-2.22h.16a2.24,2.24,0,0,1,2.1,2.28m-2.18-5.24a5.33,5.33,0,0,0-3.71,1.48A5.21,5.21,0,0,0,33,31.64h.34a5.22,5.22,0,0,0,5.21-5.14,5.21,5.21,0,0,0-4.87-5.26l-.27,0"/><path class="cls-1" d="M15.1,51.78a2.28,2.28,0,0,1,1.58-.64h.15a2.25,2.25,0,0,1,2.1,2.28A2.2,2.2,0,0,1,18.25,55a2.3,2.3,0,0,1-1.6.64h-.12a2.26,2.26,0,0,1-1.43-3.87m1.23,6.81.28,0h.07A5.21,5.21,0,0,0,17,48.2h-.33a5.21,5.21,0,0,0-.35,10.4"/><path class="cls-1" d="M11.3,43.15h-.16a2.25,2.25,0,0,1,.15-4.5h.15a2.26,2.26,0,0,1-.14,4.51M16.49,41a5.21,5.21,0,0,0-4.88-5.27h-.33a5.21,5.21,0,0,0-.34,10.41h.35A5.2,5.2,0,0,0,16.49,41"/><path class="cls-1" d="M20.35,31a2.24,2.24,0,0,1-1.56.64h-.16a2.25,2.25,0,0,1-1.43-3.86,2.23,2.23,0,0,1,1.58-.65h.15A2.25,2.25,0,0,1,21,29.45,2.29,2.29,0,0,1,20.35,31M24,29.49a5.21,5.21,0,0,0-4.86-5.27h-.35a5.21,5.21,0,0,0-.34,10.41h.35a5.2,5.2,0,0,0,3.63-1.48A5.12,5.12,0,0,0,24,29.49"/><path class="cls-1" d="M48,62.42a24.51,24.51,0,0,1-1.11-4.72,10.21,10.21,0,0,0,2.27-.34A25.55,25.55,0,0,1,48,62.42m2.19-17.17a29.24,29.24,0,0,1-4.39,0c-.06-1.89-.1-3.83-.1-5.77,0-1.74,0-3.39.07-4.94H50.2c0,1.55.07,3.2.07,4.94,0,1.94,0,3.88-.1,5.77M46.43,8.83a17.57,17.57,0,0,0,1-3.38c2.53,3.17,4.19,6.36,1.85,9.1l-2.37.12C45,13,45.46,11.52,46.43,8.83m1.19,8.76.7,0a70.42,70.42,0,0,1,1.77,14H45.87a71.47,71.47,0,0,1,1.75-14M59.68,34.87a23.64,23.64,0,0,0-7.25-10.94c-.1-.87-.21-1.71-.33-2.5a37.66,37.66,0,0,0-.93-4.62s0,0,0,0c5.23-5.59-.52-12.11-3.28-15.25L47.17.65A1.77,1.77,0,0,0,44.91.24a1.8,1.8,0,0,0-.78,2.38h0c.83,1.58.22,3.26-.48,5.2-.91,2.51-2.13,5.92,1.15,8.94-.18.64-.36,1.36-.52,2.17A41.53,41.53,0,0,0,31.8,16a31,31,0,0,0-13.65,1.69C5.88,22.25.2,34.26,0,44.13A21.72,21.72,0,0,0,7.77,61.71a18.59,18.59,0,0,0,11.78,4.16,20.61,20.61,0,0,0,4.82-.58c2.85-.69,4.91-2.12,7.3-3.78a52.66,52.66,0,0,1,5.47-3.43,6.65,6.65,0,0,1,2.2-.74,10,10,0,0,1,1.14-.11,1.48,1.48,0,0,0,0-2.95h0a12.59,12.59,0,0,0-1.54.14,10,10,0,0,0-3.12,1A54.71,54.71,0,0,0,30,59.09c-2.24,1.55-4,2.77-6.31,3.33a16,16,0,0,1-14.06-3A18.74,18.74,0,0,1,3,44.19c.17-8.87,5.25-19.66,16.22-23.76a28,28,0,0,1,12.36-1.52,37.67,37.67,0,0,1,12.24,3,131.81,131.81,0,0,0-1.05,17.53c0,2.42.05,4.84.16,7.17a1.47,1.47,0,0,0,1.29,1.4,30.12,30.12,0,0,0,7.59,0,1.47,1.47,0,0,0,1.3-1.4c.1-2.33.15-4.75.15-7.17,0-3.85-.13-7.56-.37-10.94a20.16,20.16,0,0,1,4,7.21c1.94,6.26.29,12.68-4.2,16.36a9.76,9.76,0,0,1-7.43,2.48,1.48,1.48,0,0,0-1.55,1.35V56s0,.06,0,.09a1.76,1.76,0,0,0,0,.23c1.14,8.67,2.74,9.86,4.3,9.86s3.21-1.26,4.34-10.24a15.4,15.4,0,0,0,2.22-1.54C60,50,62,42.29,59.68,34.87"/></g></g></g></svg>