<svg xmlns="http://www.w3.org/2000/svg" viewBox="0 0 72.25 66.13"><defs><style>.cls-1{fill:#fff;}.cls-2{fill:none;stroke:#fff;stroke-miterlimit:10;stroke-width:3px;}</style></defs><title>home</title><g id="Layer_2" data-name="Layer 2"><g id="Layer_1-2" data-name="Layer 1"><path class="cls-1" d="M58.28,32.36V63.13H14V32.36H58.28m.63-3H13.34a2.24,2.24,0,0,0-2.13,2.32V63.81a2.24,2.24,0,0,0,2.13,2.32H58.91A2.23,2.23,0,0,0,61,63.81V31.68a2.23,2.23,0,0,0-2.13-2.32Z"/><path class="cls-1" d="M36.13,3a1.91,1.91,0,0,1,1.13.3L53.17,15.84l15.9,12.54c.51.4-.12.9-1.13.9H4.31c-1,0-1.63-.5-1.13-.9L19.09,15.84,35,3.3A2,2,0,0,1,36.13,3m0-3a4.91,4.91,0,0,0-3,.94L17.23,13.48,1.32,26A3.32,3.32,0,0,0,.18,29.75a4.11,4.11,0,0,0,4.13,2.53H67.94a4.11,4.11,0,0,0,4.13-2.53A3.31,3.31,0,0,0,70.93,26L55,13.48,39.12.94a4.91,4.91,0,0,0-3-.94Z"/><rect class="cls-2" x="25" y="45.36" width="10.21" height="18.77" rx="1.98"/></g></g></svg>