<svg xmlns="http://www.w3.org/2000/svg" viewBox="0 0 66.25 66.17"><defs><style>.cls-1{fill:#fff;}</style></defs><title>outdoor</title><g id="Layer_2" data-name="Layer 2"><g id="Layer_1-2" data-name="Layer 1"><path id="outdoor" class="cls-1" d="M20.23,34.52l6.43,11.75-3.19-1.52a1.74,1.74,0,0,0-2,.41l-1.28,1.43L18.68,45.4a1.74,1.74,0,0,0-1.88-.2l-3.4,1.7Zm23.36-5.06a1.74,1.74,0,0,0-1.8.1l-2.3,1.55-1.43-1.7a1.75,1.75,0,0,0-2.18-.4l-3.33,1.86,6.28-15.14,7.36,15.11ZM66.24,64.39a1.23,1.23,0,0,0,0-.19.78.78,0,0,0,0-.16.88.88,0,0,0,0-.15l-.06-.18s0,0,0,0L40.27,10.73a1.75,1.75,0,0,0-1.62-1,1.73,1.73,0,0,0-1.56,1.08l-9.55,23a1.74,1.74,0,0,0,.94,2.28,1.81,1.81,0,0,0,1,.1,1.75,1.75,0,0,0,1-.21l5.83-3.24,1.51,1.8a1.75,1.75,0,0,0,2.31.32L42.88,33l5.9,3.13L61.72,62.69h-57L10.6,52h0a1.77,1.77,0,0,0,.77-.18l6-3,1.89,1.52a1.74,1.74,0,0,0,2.4-.19l1.51-1.69,5.16,2.45a1.67,1.67,0,0,0,1,.15l2.24,4.11a1.74,1.74,0,1,0,3.06-1.67L21.76,30.06a1.72,1.72,0,0,0-1.52-.9,1.67,1.67,0,0,0-1.53.9L.22,63.59s0,0,0,.08,0,.11-.07.17a1.42,1.42,0,0,0,0,.16l0,.17a1.1,1.1,0,0,0,0,.18s0,.05,0,.08,0,0,0,.08a1.1,1.1,0,0,0,0,.18.45.45,0,0,0,0,.16A.75.75,0,0,0,.11,65a1,1,0,0,0,.06.16.64.64,0,0,0,.08.14,1.19,1.19,0,0,0,.09.15l.11.13.11.12.13.1.15.11L.9,66,1,66a1.36,1.36,0,0,0,.28.11l.11,0a2.21,2.21,0,0,0,.37,0H64.55a1.12,1.12,0,0,0,.32,0,.29.29,0,0,0,.1,0,1.14,1.14,0,0,0,.26-.09h0l.09-.06.16-.1.13-.1.12-.12.11-.13.1-.14s0-.09.08-.14,0-.1.07-.16,0-.1.05-.16,0-.1,0-.16,0-.13,0-.19,0-.07,0-.11,0,0,0,0M35.72,60.8A1.74,1.74,0,1,0,34,59.06a1.74,1.74,0,0,0,1.75,1.74M9.1,8l.45,0A1.75,1.75,0,0,0,11.38,7a5.37,5.37,0,0,1,5-3.49,5.43,5.43,0,0,1,4.66,2.69,1.72,1.72,0,0,0,1.5.86h0c.21,0,.43,0,.67,0h.2a4.19,4.19,0,0,1-.18,8.37H7.76a3.61,3.61,0,0,1-3.58-3.63C4.18,9.29,5.84,8,9.1,8M7.76,18.88H23.31a7.66,7.66,0,0,0,.33-15.32h-.13A8.92,8.92,0,0,0,16.42,0,8.83,8.83,0,0,0,8.66,4.56c-5.86.17-8,3.81-8,7.21a7.1,7.1,0,0,0,7.06,7.11"/></g></g></svg>